<svg xmlns="http://www.w3.org/2000/svg" viewBox="0 0 1600 480" role="img" aria-labelledby="title desc">
  <title id="title">Weld Data Collect Workspace Cover</title>
  <desc id="desc">Cover image for the welding data collection workspace.</desc>
  <defs>
    <linearGradient id="bg" x1="0" y1="0" x2="1" y2="1">
      <stop offset="0%" stop-color="#07111f" />
      <stop offset="52%" stop-color="#0a2846" />
      <stop offset="100%" stop-color="#0f6d74" />
    </linearGradient>
    <linearGradient id="panel" x1="0" y1="0" x2="1" y2="1">
      <stop offset="0%" stop-color="#132645" stop-opacity="0.95" />
      <stop offset="100%" stop-color="#0d1c33" stop-opacity="0.88" />
    </linearGradient>
    <linearGradient id="accent" x1="0" y1="0" x2="1" y2="0">
      <stop offset="0%" stop-color="#48d4d0" />
      <stop offset="55%" stop-color="#7ed6ff" />
      <stop offset="100%" stop-color="#c9f2ff" />
    </linearGradient>
    <filter id="glow" x="-20%" y="-20%" width="140%" height="140%">
      <feGaussianBlur stdDeviation="12" result="blur" />
      <feColorMatrix in="blur" type="matrix" values="1 0 0 0 0  0 1 0 0 0.16  0 0 1 0 0.22  0 0 0 0.65 0" />
    </filter>
    <pattern id="grid" width="72" height="72" patternUnits="userSpaceOnUse">
      <path d="M 72 0 L 0 0 0 72" fill="none" stroke="#84dff1" stroke-opacity="0.08" stroke-width="1" />
    </pattern>
  </defs>

  <rect width="1600" height="480" fill="url(#bg)" />
  <rect width="1600" height="480" fill="url(#grid)" />

  <circle cx="1380" cy="80" r="180" fill="#48d4d0" fill-opacity="0.08" filter="url(#glow)" />
  <circle cx="1420" cy="390" r="120" fill="#7ed6ff" fill-opacity="0.08" filter="url(#glow)" />
  <circle cx="1320" cy="250" r="70" fill="#ffffff" fill-opacity="0.06" />

  <g transform="translate(96 84)">
    <rect x="0" y="0" width="260" height="36" rx="18" fill="#ffffff" fill-opacity="0.1" stroke="#7ed6ff" stroke-opacity="0.35" />
    <text x="22" y="24" fill="#d7fbff" font-family="Inter, Segoe UI, Arial, sans-serif" font-size="16" letter-spacing="2">ROS 2 WORKSPACE</text>

    <text x="0" y="112" fill="#ffffff" font-family="Inter, Segoe UI, Arial, sans-serif" font-size="78" font-weight="700" letter-spacing="1">Weld Data Collect</text>
    <text x="0" y="164" fill="#d5f8ff" font-family="Inter, Segoe UI, Arial, sans-serif" font-size="28" font-weight="500">Open-source platform for welding data acquisition</text>
    <text x="0" y="206" fill="#a6cfe0" font-family="Inter, Segoe UI, Arial, sans-serif" font-size="22">2D vision · 3D scanning · Fanuc robot tracing · desktop control</text>

    <rect x="0" y="254" width="520" height="1" fill="url(#accent)" opacity="0.8" />

    <g transform="translate(0 284)">
      <rect x="0" y="0" width="150" height="48" rx="14" fill="#48d4d0" fill-opacity="0.18" stroke="#8cf2ee" stroke-opacity="0.45" />
      <text x="20" y="30" fill="#e8ffff" font-family="Inter, Segoe UI, Arial, sans-serif" font-size="18">camera_pool</text>

      <rect x="170" y="0" width="150" height="48" rx="14" fill="#7ed6ff" fill-opacity="0.18" stroke="#bfefff" stroke-opacity="0.45" />
      <text x="188" y="30" fill="#effcff" font-family="Inter, Segoe UI, Arial, sans-serif" font-size="18">camera_3d</text>

      <rect x="340" y="0" width="150" height="48" rx="14" fill="#ffb36b" fill-opacity="0.16" stroke="#ffd2a8" stroke-opacity="0.45" />
      <text x="360" y="30" fill="#fff6ea" font-family="Inter, Segoe UI, Arial, sans-serif" font-size="18">robot_profile</text>
    </g>
  </g>

  <g transform="translate(930 84)">
    <rect x="0" y="0" width="560" height="312" rx="28" fill="url(#panel)" stroke="#7ed6ff" stroke-opacity="0.18" />
    <rect x="24" y="24" width="512" height="264" rx="22" fill="#ffffff" fill-opacity="0.03" stroke="#ffffff" stroke-opacity="0.08" />

    <g fill="none" stroke-linecap="round" stroke-linejoin="round">
      <path d="M 102 102 C 160 102, 180 102, 228 102" stroke="#7ed6ff" stroke-width="4" />
      <path d="M 102 102 C 160 160, 180 190, 228 198" stroke="#48d4d0" stroke-width="4" />
      <path d="M 102 198 C 160 190, 180 160, 228 102" stroke="#ffb36b" stroke-width="4" />
      <path d="M 286 150 C 330 150, 362 150, 406 150" stroke="#c9f2ff" stroke-width="4" />
      <path d="M 286 150 C 330 198, 362 220, 406 236" stroke="#48d4d0" stroke-width="4" />
    </g>

    <g font-family="Inter, Segoe UI, Arial, sans-serif">
      <rect x="44" y="66" width="116" height="72" rx="18" fill="#48d4d0" fill-opacity="0.18" stroke="#8cf2ee" stroke-opacity="0.5" />
      <text x="62" y="97" fill="#efffff" font-size="18" font-weight="600">2D Camera</text>
      <text x="62" y="121" fill="#c8f6f4" font-size="14">image stream</text>

      <rect x="44" y="178" width="116" height="72" rx="18" fill="#7ed6ff" fill-opacity="0.18" stroke="#bfefff" stroke-opacity="0.5" />
      <text x="62" y="209" fill="#efffff" font-size="18" font-weight="600">3D Scanner</text>
      <text x="62" y="233" fill="#c8f6f4" font-size="14">point cloud</text>

      <rect x="182" y="116" width="138" height="88" rx="20" fill="#ffffff" fill-opacity="0.08" stroke="#c9f2ff" stroke-opacity="0.45" />
      <text x="210" y="148" fill="#ffffff" font-size="22" font-weight="700">robot_sim</text>
      <text x="204" y="174" fill="#d3edf4" font-size="14">manifest.json</text>
      <text x="204" y="194" fill="#d3edf4" font-size="14">status topic</text>

      <rect x="342" y="72" width="154" height="66" rx="18" fill="#ffb36b" fill-opacity="0.16" stroke="#ffd2a8" stroke-opacity="0.5" />
      <text x="364" y="101" fill="#fff6ea" font-size="18" font-weight="600">Fanuc Robot</text>
      <text x="364" y="123" fill="#ffe3c6" font-size="14">state & register</text>

      <rect x="342" y="182" width="154" height="66" rx="18" fill="#2d6cdf" fill-opacity="0.16" stroke="#9ec0ff" stroke-opacity="0.5" />
      <text x="361" y="211" fill="#f2f7ff" font-size="18" font-weight="600">Desktop UI</text>
      <text x="361" y="233" fill="#dbe8ff" font-size="14">control & review</text>
    </g>
  </g>
</svg>
